# xmcd
#
# Track frame offsets:
# 150
# 26793
# 43084
# 60040
# 79633
# 97470
# 114127
# 133000
# 164275
# 187563
# 210132
# 227896
# 244062
# 272362
# 291182
# 309729
# 336379
#
# Disc length: 4701 seconds
#
# Revision: 8
# Processed by: cddbd v1.5.2PL0 Copyright (c) Steve Scherf et al.
# Submitted via: TinyPlayer 2.8
#
DISCID=e2125b11
DTITLE=Saxon - Power and the Glory [Remastered]
DYEAR=1983
DGENRE=Heavy Metal
TTITLE0=Power and the Glory
TTITLE1=Redline
TTITLE2=Warrior
TTITLE3=Nightmare
TTITLE4=This Town Rocks
TTITLE5=Watching the Sky
TTITLE6=Midas Touch
TTITLE7=The Eagle Has Landed
TTITLE8=Denim and Leather [Live B-side of 'Power and the Glory']
TTITLE9=Suzie Hold On [Jeff Glixman Version 1982]
TTITLE10=Turn Out the Lights [Kaley Studio Demo 1982]
TTITLE11=Stand Up and Rock [Kaley Studio Demo 1982]
TTITLE12=Power and the Glory [Kaley Studio Demo 1982]
TTITLE13=Saturday Night [Kaley Studio Demo 1982]
TTITLE14=Midas Touch [Kaley Studio Demo 1982]
TTITLE15=Nightmare [Kaley Studio Demo 1982]
TTITLE16=Redline [Kaley Studio Demo 1982]
EXTD=Location:  - UPC: 825646326921 - Catalogue number: 825646326921 - Label: Parlophone,Warner Music - ASIN: B00HWI7XNA - Release Date:  - Discogs: a263589,r6078915 - MUSICBRAINZ_ALBUMID: a23c2ac3-4e60-4fd5-835d-7141315f7cc0 - AMG: mn0000259800,mw0002616767;Pa
EXTD=rt of box set: "The Complete Albums 1979-1988" (2014 03 17) - 2009 Remaster
EXTT0=
EXTT1=
EXTT2=
EXTT3=
EXTT4=
EXTT5=
EXTT6=
EXTT7=
EXTT8=
EXTT9=
EXTT10=
EXTT11=
EXTT12=
EXTT13=
EXTT14=
EXTT15=
EXTT16=
PLAYORDER=
